<?xml version="1.0" encoding="UTF-8" standalone="no"?>
<!-- Created with Inkscape (http://www.inkscape.org/) -->

<svg
   version="1.1"
   id="svg1"
   width="298.66666"
   height="202.66667"
   viewBox="0 0 298.66666 202.66667"
   sodipodi:docname="Ativo 4@4x.png"
   inkscape:export-filename="Ativo 4@4x.svg"
   inkscape:export-xdpi="96"
   inkscape:export-ydpi="96"
   xmlns:inkscape="http://www.inkscape.org/namespaces/inkscape"
   xmlns:sodipodi="http://sodipodi.sourceforge.net/DTD/sodipodi-0.dtd"
   xmlns="http://www.w3.org/2000/svg"
   xmlns:svg="http://www.w3.org/2000/svg">
  <defs
     id="defs1" />
  <sodipodi:namedview
     id="namedview1"
     pagecolor="#ffffff"
     bordercolor="#000000"
     borderopacity="0.25"
     inkscape:showpageshadow="2"
     inkscape:pageopacity="0.0"
     inkscape:pagecheckerboard="0"
     inkscape:deskcolor="#d1d1d1"
     showgrid="false"
     inkscape:export-bgcolor="#ffffff00" />
  <g
     inkscape:groupmode="layer"
     inkscape:label="Image"
     id="g1">
    <g
       id="g3"
       transform="matrix(0.90885725,0,0,0.90885725,12.295752,8.4963747)">
      <path
         id="path1"
         style="fill:#4b8339;fill-opacity:1;stroke:#000000;stroke-width:0.548489;stroke-linecap:round;stroke-linejoin:bevel"
         d="m 175.08149,190.50151 c -2.96908,-1.08968 -5.19692,-2.8117 -6.61662,-5.11435 -1.10037,-1.78474 -8.44612,-20.81261 -14.6406,-37.92392 -1.25588,-3.46919 -2.59691,-7.04808 -2.98007,-7.95309 -0.74004,-1.74796 -12.04256,-31.97387 -19.48443,-52.106449 C 125.67365,72.020955 122.88232,67.222987 114.90844,59.125749 107.24002,51.3387 100.34047,46.80808 91.323412,43.638535 82.954836,40.696934 80.175791,40.255998 69.932343,40.244524 c -8.294064,-0.0093 -10.269178,0.162822 -14.533038,1.266404 -8.345658,2.160042 -16.248891,5.873447 -23.312701,10.953682 -4.209303,3.027295 -12.53325,12.16295 -15.386962,16.887414 -3.076787,5.093779 -6.184276,11.989514 -7.173739,15.919031 -0.333335,1.323789 -0.784355,2.40689 -1.002267,2.40689 -0.568821,0 -3.0403057,-4.69484 -4.3310794,-8.227334 C 1.7330253,72.719549 1.1561381,69.069081 1.1588182,60.253497 1.161917,50.061011 2.4345213,43.504963 5.8392958,36.141186 12.170493,22.448199 26.566608,11.188485 43.879117,6.388886 55.926194,3.0490375 70.672715,1.8313034 81.9991,3.2410244 c 18.67698,2.3246025 31.13774,6.3054896 44.42761,14.1934666 12.68319,7.527894 23.07555,18.48157 27.61522,29.106782 2.02897,4.748854 6.49029,15.631168 8.76949,21.39107 3.06947,7.757021 7.89737,19.634319 8.5836,21.116825 0.27927,0.603338 2.38596,5.786558 4.68153,11.518272 2.29557,5.73171 4.43088,11.03834 4.74514,11.79251 0.31427,0.75417 2.21525,5.4246 4.22442,10.37874 2.00916,4.95413 3.9008,9.0901 4.20365,9.19105 0.30285,0.10095 1.25263,-1.73105 2.11063,-4.07111 0.85801,-2.34006 1.89203,-4.99512 2.29783,-5.90012 0.40581,-0.90501 3.5924,-8.80325 7.08131,-17.55165 3.48891,-8.7484 6.5722,-16.399821 6.85176,-17.003159 0.27956,-0.603338 2.00838,-4.922689 3.84181,-9.598557 1.83344,-4.675868 3.56697,-8.995219 3.8523,-9.598557 0.28532,-0.603338 2.76195,-6.773838 5.50362,-13.712224 2.74167,-6.938385 5.31077,-13.355706 5.70912,-14.260713 0.39836,-0.905007 2.86957,-7.075508 5.49158,-13.712224 7.34183,-18.583292 7.93086,-19.826221 10.79377,-22.7762592 1.21198,-1.2488611 3.47989,-2.8648952 5.03978,-3.5911869 2.81923,-1.3126338 2.94699,-1.3205622 21.36531,-1.3258883 20.2915,-0.00587 20.44421,0.01498 24.1881,3.302153 3.07668,2.7013697 4.26747,5.4958064 4.59774,10.7896134 l 0.28396,4.5515 h -2.32874 c -9.30298,0 -23.10787,16.139598 -38.2354,44.701851 -5.85398,11.052869 -6.97947,13.551385 -10.87133,24.133514 -6.35951,17.291757 -16.28913,43.818027 -17.07232,45.607477 -0.41604,0.9506 -0.75645,2.07363 -0.75645,2.49562 0,0.422 -0.21639,1.00175 -0.48086,1.28833 -0.26448,0.28659 -1.0253,2.1254 -1.6907,4.08625 -0.66542,1.96084 -4.12251,11.34001 -7.68244,20.84258 -3.55993,9.50257 -7.0302,18.83353 -7.71171,20.73548 -1.56726,4.37383 -4.77855,7.80854 -8.47971,9.06965 -3.56182,1.21364 -24.60672,1.26605 -27.86723,0.0694 z" />
      <path
         style="fill:#fcc83a;fill-opacity:1;stroke:#000000;stroke-width:0.548489;stroke-linecap:round;stroke-linejoin:bevel"
         d="M 65.544431,201.83748 C 55.364602,200.81553 50.113641,199.71514 41.410917,196.78007 26.889873,191.88271 13.891318,181.38951 7.2091289,169.17035 3.6310928,162.62749 1.4251838,155.23507 0.97435313,148.27643 l -0.3139954,-4.84657 H 25.423549 50.18674 v 1.39366 c 0,4.34125 3.994018,11.94915 7.95309,15.14924 5.405496,4.36923 12.744306,6.11467 20.842581,4.95716 8.298265,-1.1861 13.766859,-4.63498 16.510905,-10.41295 1.256692,-2.64614 1.488248,-3.85978 1.48748,-7.79617 -0.0012,-5.95984 -1.418815,-8.9711 -6.316991,-13.41806 C 85.258134,128.39505 78.896177,125.65638 56.768608,118.7117 42.971519,114.38153 30.216424,109.02505 23.536447,104.75593 20.193561,102.61952 13.435802,96.403081 10.648951,92.900769 L 9.0672071,90.912948 10.759161,85.770412 c 6.218027,-18.899103 21.634224,-34.361435 40.090426,-40.210399 4.925389,-1.560908 9.508415,-2.345517 7.838732,-1.341983 -5.674891,3.410795 -8.501579,8.558106 -8.501579,15.481108 0,3.073219 0.310174,4.41866 1.680683,7.290304 3.286142,6.885489 10.889872,11.024699 35.616567,19.388434 17.16851,5.8072 28.76246,10.858851 36.04864,15.706904 8.58519,5.71239 16.53663,15.05994 19.30662,22.69646 2.79707,7.71121 3.65122,20.77371 1.92391,29.42261 -1.57342,7.87841 -5.42786,16.48542 -10.2812,22.95808 -2.97721,3.97058 -9.51111,9.95369 -14.17009,12.97563 -10.81952,7.01781 -20.355428,10.13614 -35.84457,11.72149 -8.846584,0.90547 -9.698091,0.9045 -18.922869,-0.0216 z"
         id="path2" />
      <path
         style="fill:#e37a35;fill-opacity:1;stroke:#000000;stroke-width:0.548489;stroke-linecap:round;stroke-linejoin:bevel"
         d="M 251.48219,135.66576 V 77.989157 l 4.57914,-8.827685 c 10.95199,-21.11327 20.02732,-34.694993 28.53607,-42.705768 3.87556,-3.648741 9.31745,-6.608996 11.65776,-6.341536 l 1.57435,0.179924 0.13882,86.524138 0.13882,86.52413 h -23.31248 -23.31248 z"
         id="path3" />
    </g>
  </g>
</svg>
